<svg xmlns="http://www.w3.org/2000/svg" width="408.33041mm" height="97.278709mm" viewBox="0 0 408.33041 97.278709"><g style="fill:#f9f9f9"><path d="M0 0c3.711-10.086 14.211-16.525 24.678-17.924l2.006 6.678C13.745-7.424 6.979 7.639 6.086 21.058H-6.088c-.89-13.419-7.659-28.482-20.6-32.304l2.006-6.678C-14.214-16.525-3.715-10.086 0 0" style="fill:#f9f9f9;fill-opacity:1;fill-rule:nonzero;stroke:none" transform="matrix(.70577 0 0 -.70577 128.108 28.592)"/></g><g style="fill:#f9f9f9"><path d="M0 0c-11.213 0-20.304 4.021-20.304 8.979 0 4.958 9.091 8.976 20.304 8.976 11.214 0 20.304-4.018 20.304-8.976C20.304 4.021 11.214 0 0 0m31.449 12.82h.197v53.527H20.165v-9.775H1.313v-8.267h18.852V22.421C14.639 24.786 7.634 26.21 0 26.21c-17.828 0-32.281-7.716-32.281-17.231C-32.281-.538-17.828-8.252 0-8.252c17.829 0 32.284 7.714 32.284 17.231 0 1.322-.306 2.604-.835 3.841" style="fill:#f9f9f9;fill-opacity:1;fill-rule:nonzero;stroke:none" transform="matrix(.70577 0 0 -.70577 137.873 60.526)"/></g><g style="fill:#f9f9f9"><path d="M0 0v-8.137h-13.29v-8.269H0v-7.997h-13.221v-8.268H0v-8.014h-50.081v-7.759H0v-4.531h-50.081l.002-12.991c0-4.037 3.273-7.159 7.309-7.159h54.303v7.832h-49.981v4.489h49.981V0Z" style="fill:#f9f9f9;fill-opacity:1;fill-rule:nonzero;stroke:none" transform="matrix(.70577 0 0 -.70577 214.15 13.697)"/></g><g style="fill:#f9f9f9"><path d="M0 0h-42.919v-8.088h29.352c-1.972-12.509-14.68-18.843-31.504-22.377l1.964-7.152C-14.016-33.231-1.649-23.665 0 0" style="fill:#f9f9f9;fill-opacity:1;fill-rule:nonzero;stroke:none" transform="matrix(.70577 0 0 -.70577 204.724 14.661)"/></g><g style="fill:#f9f9f9"><path d="M0 0v-19.748h-5.74V0h-11.062v-40.308h-27.501V-9.67h21.414v8.269h-32.774s-.024-37.692-.024-39.433c0-7.979 5.976-7.61 11.384-7.61h27.501v-24.648H-5.74v45.077H0v-45.077h10.806V0Z" style="fill:#f9f9f9;fill-opacity:1;fill-rule:nonzero;stroke:none" transform="matrix(.70577 0 0 -.70577 275.344 13.677)"/></g><g style="fill:#f9f9f9"><path d="M0 0v-12.294h8.941v-8.266H0v-17.131h-11.505V0Z" style="fill:#f9f9f9;fill-opacity:1;fill-rule:nonzero;stroke:none" transform="matrix(.70577 0 0 -.70577 343.806 13.644)"/></g><g style="fill:#f9f9f9"><path d="M0 0h49.37v-25.064h11.591V8.092H.043Z" style="fill:#f9f9f9;fill-opacity:1;fill-rule:nonzero;stroke:none" transform="matrix(.70577 0 0 -.70577 300.782 47.88)"/></g><g style="fill:#f9f9f9"><path d="M0 0c-6.641 0-12.026 3.693-12.026 8.248 0 4.556 5.385 8.25 12.026 8.25 6.642 0 12.027-3.694 12.027-8.25C12.027 3.693 6.642 0 0 0m24.647 27.306H5.68v5.272H-5.783v-5.272h-18.842v-8.437h7.572c-3.738-2.805-6.036-6.525-6.036-10.621C-23.089-.473-12.751-7.541 0-7.541c12.752 0 23.092 7.068 23.092 15.789 0 4.096-2.298 7.816-6.037 10.621h7.592z" style="fill:#f9f9f9;fill-opacity:1;fill-rule:nonzero;stroke:none" transform="matrix(.70577 0 0 -.70577 312.88 34.93)"/></g><g style="fill:#f9f9f9"><path d="M0 0v47.925h-61.805v-8.257h50.206V0h-10.87l.002 29.635H-34.02V0h-11.093v29.609h-11.481V0h-7.965v-8.267H3.48V0Z" style="fill:#f9f9f9;fill-opacity:1;fill-rule:nonzero;stroke:none" transform="matrix(.70577 0 0 -.70577 405.44 48.823)"/></g><path d="M0 0c30.116 0 54.531 24.414 54.531 54.53S30.116 109.061 0 109.061c-30.115 0-54.53-24.415-54.53-54.531S-30.115 0 0 0" style="fill:#fff;fill-opacity:1;fill-rule:nonzero;stroke:none" transform="matrix(.70577 0 0 -.70577 48.384 85.595)"/><path d="M0 0c30.116 0 54.531 24.414 54.531 54.53S30.116 109.061 0 109.061c-30.115 0-54.53-24.415-54.53-54.531S-30.115 0 0 0Z" style="fill:none;stroke:#000;stroke-width:.972;stroke-linecap:butt;stroke-linejoin:miter;stroke-miterlimit:4;stroke-dasharray:none;stroke-opacity:1" transform="matrix(.70577 0 0 -.70577 48.384 85.595)"/><path d="M0 0c-26.231 0-47.497 21.268-47.497 47.499 0 26.232 21.266 47.496 47.497 47.496s47.496-21.264 47.496-47.496C47.496 21.268 26.231 0 0 0m-.433 116.686c-37.972 0-68.754-30.783-68.754-68.755 0-37.971 30.782-68.754 68.754-68.754 37.973 0 68.755 30.783 68.755 68.754 0 37.972-30.782 68.755-68.755 68.755" style="fill:#fff;fill-opacity:1;fill-rule:nonzero;stroke:none" transform="matrix(.70577 0 0 -.70577 48.945 82.468)"/><path d="M0 0c-26.231 0-47.497 21.268-47.497 47.499 0 26.232 21.266 47.496 47.497 47.496s47.496-21.264 47.496-47.496C47.496 21.268 26.231 0 0 0Zm-.433 116.686c-37.972 0-68.754-30.783-68.754-68.755 0-37.971 30.782-68.754 68.754-68.754 37.973 0 68.755 30.783 68.755 68.754 0 37.972-30.782 68.755-68.755 68.755z" style="fill:none;stroke:#000;stroke-width:.325;stroke-linecap:butt;stroke-linejoin:miter;stroke-miterlimit:4;stroke-dasharray:none;stroke-opacity:1" transform="matrix(.70577 0 0 -.70577 48.945 82.468)"/><path d="M0 0c-27.494 0-49.785 22.289-49.785 49.783 0 27.496 22.291 49.785 49.785 49.785 27.493 0 49.783-22.289 49.783-49.785C49.783 22.289 27.493 0 0 0m-.324 116.743c-36.742 0-66.526-29.786-66.526-66.527 0-36.74 29.784-66.526 66.526-66.526 36.739 0 66.524 29.786 66.524 66.526 0 36.741-29.785 66.527-66.524 66.527" style="fill:#005aa9;fill-opacity:1;fill-rule:nonzero;stroke:none" transform="matrix(.70577 0 0 -.70577 48.978 84.048)"/><path d="M0 0c-27.494 0-49.785 22.289-49.785 49.783 0 27.496 22.291 49.785 49.785 49.785 27.493 0 49.783-22.289 49.783-49.785C49.783 22.289 27.493 0 0 0Zm-.324 116.743c-36.742 0-66.526-29.786-66.526-66.527 0-36.74 29.784-66.526 66.526-66.526 36.739 0 66.524 29.786 66.524 66.526 0 36.741-29.785 66.527-66.524 66.527z" style="fill:none;stroke:#231f20;stroke-width:.325;stroke-linecap:butt;stroke-linejoin:miter;stroke-miterlimit:4;stroke-dasharray:none;stroke-opacity:1" transform="matrix(.70577 0 0 -.70577 48.978 84.048)"/><path d="M0 0c-1.552-1.406-2.733-3.691-1.947-5.639l-1.009-.402c-.843 1.411-1.074 3.317-.203 4.746-1.589-.524-3.392.135-4.575 1.275l.619.891c1.719-1.209 4.213-.577 5.935.614z" style="fill:#fff;fill-opacity:1;fill-rule:nonzero;stroke:none" transform="matrix(.70577 0 0 -.70577 19.866 71.118)"/><path d="m0 0-1.193-.947-1.825 2.3-1.008-.802 1.825-2.299-4.329-3.434 1.111-1.401 6.531 5.182z" style="fill:#fff;fill-opacity:1;fill-rule:nonzero;stroke:none" transform="matrix(.70577 0 0 -.70577 21.776 73.518)"/><path d="M0 0c1.086-1.367 2.454-2.087 3.06-1.606.604.479.214 1.977-.872 3.345C1.103 3.107-.266 3.826-.871 3.346-1.476 2.867-1.087 1.369 0 0m-2.031 4.807c1.162.923 3.501-.095 5.228-2.27C4.922.362 5.381-2.147 4.22-3.067 3.058-3.99.718-2.974-1.008-.799c-1.725 2.176-2.183 4.686-1.023 5.606" style="fill:#fff;fill-opacity:1;fill-rule:nonzero;stroke:none" transform="matrix(.70577 0 0 -.70577 14.687 76.316)"/><path d="m0 0 8.499-4.453" style="fill:#fff;fill-opacity:1;fill-rule:nonzero;stroke:none" transform="matrix(.70577 0 0 -.70577 27.727 84.192)"/><path d="M0 0a1.118 1.118 0 0 0-.533 1.501L.352 3.32 7.363-.098l.31.633L.662 3.953l.53 1.085L9.816.835 8.445-1.982 1.447 1.429 1.14.801l6.997-3.412-.534-1.096Z" style="fill:#fff;fill-opacity:1;fill-rule:nonzero;stroke:none" transform="matrix(.70577 0 0 -.70577 26.729 87.793)"/><path d="m0 0-.556-1.138-1.86.907-.566-1.158 1.86-.906-.545-1.121-1.85.903-.564-1.158 1.851-.901-.578-1.189 1.613-.785L1.614-.787z" style="fill:#fff;fill-opacity:1;fill-rule:nonzero;stroke:none" transform="matrix(.70577 0 0 -.70577 34.477 82.629)"/><path d="M0 0c-1.847-3.2-4.23-3.694-8.602-2.324l.214 1.136c2.595-.652 4.807-.633 5.936.982L-6.56 1.797l.552 1.134z" style="fill:#fff;fill-opacity:1;fill-rule:nonzero;stroke:none" transform="matrix(.70577 0 0 -.70577 33.092 82.121)"/><path d="M0 0h1.724v-3.075h.893V0h1.681v-11.382H2.617v7.02h-.893v-7.02H0Z" style="fill:#fff;fill-opacity:1;fill-rule:nonzero;stroke:none" transform="matrix(.70577 0 0 -.70577 49.18 86.091)"/><path d="M0 0h5.102v-1.289H1.768V-6.06h4.925v-1.267H1.768c-.843 0-1.772-.056-1.772 1.185L0 0" style="fill:#fff;fill-opacity:1;fill-rule:nonzero;stroke:none" transform="matrix(.70577 0 0 -.70577 44.91 86.245)"/><path d="m0 0 .856-1.712 1.245.621.575-1.152-1.246-.623L2.623-5.25l-1.604-.802-2.621 5.251Z" style="fill:#fff;fill-opacity:1;fill-rule:nonzero;stroke:none" transform="matrix(.70577 0 0 -.70577 68.69 80.298)"/><path d="m0 0 6.878 3.436L8.623-.056l1.616.806L7.93 5.368-.558 1.13Z" style="fill:#fff;fill-opacity:1;fill-rule:nonzero;stroke:none" transform="matrix(.70577 0 0 -.70577 65.078 88.062)"/><path d="m0 0-2.641-1.319-.366.734-1.6-.797.367-.736-2.624-1.31.588-1.177 6.865 3.43z" style="fill:#fff;fill-opacity:1;fill-rule:nonzero;stroke:none" transform="matrix(.70577 0 0 -.70577 66.945 81.52)"/><path d="M0 0c.925.462 1.419 1.351 1.102 1.986-.318.634-1.324.775-2.25.312C-2.074 1.836-2.566.947-2.25.312-1.932-.322-.924-.462 0 0m-3.791-.458c-.607 1.215.342 2.919 2.118 3.807 1.776.887 3.709.621 4.316-.594C3.25 1.541 2.302-.164.525-1.051c-1.776-.888-3.708-.622-4.316.593" style="fill:#fff;fill-opacity:1;fill-rule:nonzero;stroke:none" transform="matrix(.70577 0 0 -.70577 65.863 85.416)"/><path d="m0 0-6.356-7.227.964-.848 5.164 5.87L4.564-6.42l1.194 1.356z" style="fill:#fff;fill-opacity:1;fill-rule:nonzero;stroke:none" transform="matrix(.70577 0 0 -.70577 80.11 70.447)"/><path d="m0 0-3.465 3.049-1.189-1.352 3.467-3.048-1.142-1.296L-5.79.398-6.97-.944l3.461-3.047-.82-.93.967-.85 6.998 7.956-.967.849z" style="fill:#fff;fill-opacity:1;fill-rule:nonzero;stroke:none" transform="matrix(.70577 0 0 -.70577 82.435 75.78)"/><path d="m0 0-.035.995c.64.029 1.154.14 1.548.328.736.358 1.087.98 1.056 1.866a2.407 2.407 0 0 1-.283 1.08c-.339.628-.919.936-1.737.929-.616-.006-1.048-.144-1.299-.412-.249-.273-.456-.696-.625-1.271l-.309-1.062c-.2-.692-.432-1.185-.693-1.473C-2.831.479-3.525.223-4.463.214-5.477.203-6.316.437-6.984.916c-.666.478-1.017 1.162-1.048 2.05-.027.818.234 1.517.784 2.094.55.578 1.453.874 2.708.887l.033-.993c-.601-.059-1.06-.179-1.376-.355-.579-.329-.854-.877-.827-1.651.023-.622.228-1.069.616-1.338.388-.268.833-.4 1.335-.395.553.005.953.17 1.196.491.158.21.345.684.565 1.425l.322 1.098c.155.529.381.939.672 1.228.51.503 1.266.758 2.27.768 1.248.014 2.152-.292 2.712-.914a3.362 3.362 0 0 0 .884-2.184c.033-.969-.298-1.733-.996-2.288C2.175.28 1.219.001 0 0" style="fill:#fff;fill-opacity:1;fill-rule:nonzero;stroke:none" transform="matrix(.70577 0 0 -.70577 9.067 50.71)"/><path d="m0 0-.035.995c.64.029 1.154.14 1.548.328.736.358 1.087.98 1.056 1.866a2.407 2.407 0 0 1-.283 1.08c-.339.628-.919.936-1.737.929-.616-.006-1.048-.144-1.299-.412-.249-.273-.456-.696-.625-1.271l-.309-1.062c-.2-.692-.432-1.185-.693-1.473C-2.831.479-3.525.223-4.463.214-5.477.203-6.316.437-6.984.916c-.666.478-1.017 1.162-1.048 2.05-.027.818.234 1.517.784 2.094.55.578 1.453.874 2.708.887l.033-.993c-.601-.059-1.06-.179-1.376-.355-.579-.329-.854-.877-.827-1.651.023-.622.228-1.069.616-1.338.388-.268.833-.4 1.335-.395.553.005.953.17 1.196.491.158.21.345.684.565 1.425l.322 1.098c.155.529.381.939.672 1.228.51.503 1.266.758 2.27.768 1.248.014 2.152-.292 2.712-.914a3.362 3.362 0 0 0 .884-2.184c.033-.969-.298-1.733-.996-2.288C2.175.28 1.219.001 0 0Z" style="fill:none;stroke:#fff;stroke-width:.13;stroke-linecap:butt;stroke-linejoin:miter;stroke-miterlimit:4;stroke-dasharray:none;stroke-opacity:1" transform="matrix(.70577 0 0 -.70577 9.067 50.71)"/><path d="m0 0 .182 1.054 6.87-1.333c.806-.156 1.497-.183 2.067-.076.86.151 1.354.595 1.482 1.33.152.88-.18 1.562-.997 2.048-.446.262-1.069.472-1.871.627L.863 4.982l.184 1.054 6.241-1.21c1.366-.266 2.397-.596 3.09-.992 1.261-.727 1.779-1.738 1.553-3.031-.224-1.294-1.047-2.044-2.47-2.245-.779-.111-1.854-.035-3.22.231Z" style="fill:#fff;fill-opacity:1;fill-rule:nonzero;stroke:none" transform="matrix(.70577 0 0 -.70577 4.198 42.067)"/><path d="m0 0 .182 1.054 6.87-1.333c.806-.156 1.497-.183 2.067-.076.86.151 1.354.595 1.482 1.33.152.88-.18 1.562-.997 2.048-.446.262-1.069.472-1.871.627L.863 4.982l.184 1.054 6.241-1.21c1.366-.266 2.397-.596 3.09-.992 1.261-.727 1.779-1.738 1.553-3.031-.224-1.294-1.047-2.044-2.47-2.245-.779-.111-1.854-.035-3.22.231Z" style="fill:none;stroke:#fff;stroke-width:.13;stroke-linecap:butt;stroke-linejoin:miter;stroke-miterlimit:4;stroke-dasharray:none;stroke-opacity:1" transform="matrix(.70577 0 0 -.70577 4.198 42.067)"/><path d="m0 0-10.442 4.449.473 1.147 9.949.02-8.459 3.604.379.923L2.344 5.694l-.449-1.088-9.966-.078L.382.928Z" style="fill:#fff;fill-opacity:1;fill-rule:nonzero;stroke:none" transform="matrix(.70577 0 0 -.70577 13.812 36.363)"/><path d="m0 0-10.442 4.449.473 1.147 9.949.02-8.459 3.604.379.923L2.344 5.694l-.449-1.088-9.966-.078L.382.928Z" style="fill:none;stroke:#fff;stroke-width:.13;stroke-linecap:butt;stroke-linejoin:miter;stroke-miterlimit:4;stroke-dasharray:none;stroke-opacity:1" transform="matrix(.70577 0 0 -.70577 13.812 36.363)"/><path d="M0 0c.419.596.948.99 1.59 1.187.927.286 2.046.07 3.359-.647l-.597-.85C3.601.067 2.956.202 2.42.096c-.54-.107-.982-.406-1.33-.9-.413-.587-.438-1.308-.075-2.166.362-.858 1.179-1.738 2.454-2.642 1.104-.781 2.117-1.253 3.042-1.412.927-.16 1.65.134 2.177.882.403.572.491 1.217.269 1.937-.221.72-.873 1.469-1.952 2.247L5.608-3.942l-1.04.737L6.524-.421l4.962-3.518-.387-.55-1.34.638c.264-.622.407-1.11.429-1.462.047-.597-.134-1.186-.542-1.767-.529-.75-1.338-1.144-2.429-1.18-1.307.043-2.74.614-4.297 1.718C1.366-5.441.334-4.278-.179-3.052-.67-1.887-.61-.868 0 0" style="fill:#fff;fill-opacity:1;fill-rule:nonzero;stroke:none" transform="matrix(.70577 0 0 -.70577 10.826 23.667)"/><path d="M0 0c.419.596.948.99 1.59 1.187.927.286 2.046.07 3.359-.647l-.597-.85C3.601.067 2.956.202 2.42.096c-.54-.107-.982-.406-1.33-.9-.413-.587-.438-1.308-.075-2.166.362-.858 1.179-1.738 2.454-2.642 1.104-.781 2.117-1.253 3.042-1.412.927-.16 1.65.134 2.177.882.403.572.491 1.217.269 1.937-.221.72-.873 1.469-1.952 2.247L5.608-3.942l-1.04.737L6.524-.421l4.962-3.518-.387-.55-1.34.638c.264-.622.407-1.11.429-1.462.047-.597-.134-1.186-.542-1.767-.529-.75-1.338-1.144-2.429-1.18-1.307.043-2.74.614-4.297 1.718C1.366-5.441.334-4.278-.179-3.052-.67-1.887-.61-.868 0 0Z" style="fill:none;stroke:#fff;stroke-width:.13;stroke-linecap:butt;stroke-linejoin:miter;stroke-miterlimit:4;stroke-dasharray:none;stroke-opacity:1" transform="matrix(.70577 0 0 -.70577 10.826 23.667)"/><path d="m0 0-8.343 7.719.698.747 4.066-3.762-1.486 6.521.991 1.059 1.162-5.463L4.33 4.63l-.933-.998-6.037 1.894.431-2.089L.7.749Z" style="fill:#fff;fill-opacity:1;fill-rule:nonzero;stroke:none" transform="matrix(.70577 0 0 -.70577 20.934 24.376)"/><path d="m0 0-8.343 7.719.698.747 4.066-3.762-1.486 6.521.991 1.059 1.162-5.463L4.33 4.63l-.933-.998-6.037 1.894.431-2.089L.7.749Z" style="fill:none;stroke:#fff;stroke-width:.13;stroke-linecap:butt;stroke-linejoin:miter;stroke-miterlimit:4;stroke-dasharray:none;stroke-opacity:1" transform="matrix(.70577 0 0 -.70577 20.934 24.376)"/><path d="m0 0-6.79 2.986.907.824 5.37-2.492-2.068 5.487.91.829L.778.706 3.899-2.64l-.778-.705Z" style="fill:#fff;fill-opacity:1;fill-rule:nonzero;stroke:none" transform="matrix(.70577 0 0 -.70577 24.879 16.408)"/><path d="m0 0-6.79 2.986.907.824 5.37-2.492-2.068 5.487.91.829L.778.706 3.899-2.64l-.778-.705Z" style="fill:none;stroke:#fff;stroke-width:.13;stroke-linecap:butt;stroke-linejoin:miter;stroke-miterlimit:4;stroke-dasharray:none;stroke-opacity:1" transform="matrix(.70577 0 0 -.70577 24.879 16.408)"/><path d="m0 0 .944.505L4.364-5.6c.402-.717.83-1.262 1.283-1.637.678-.571 1.347-.677 2.004-.328.788.422 1.106 1.095.955 2.022-.083.504-.324 1.111-.724 1.824L4.461 2.384l.944.504 3.108-5.545c.682-1.214 1.091-2.21 1.229-2.985.252-1.417-.203-2.431-1.362-3.051-1.157-.619-2.279-.443-3.361.528-.594.531-1.231 1.404-1.91 2.619Z" style="fill:#fff;fill-opacity:1;fill-rule:nonzero;stroke:none" transform="matrix(.70577 0 0 -.70577 26.946 9.268)"/><path d="m0 0 .944.505L4.364-5.6c.402-.717.83-1.262 1.283-1.637.678-.571 1.347-.677 2.004-.328.788.422 1.106 1.095.955 2.022-.083.504-.324 1.111-.724 1.824L4.461 2.384l.944.504 3.108-5.545c.682-1.214 1.091-2.21 1.229-2.985.252-1.417-.203-2.431-1.362-3.051-1.157-.619-2.279-.443-3.361.528-.594.531-1.231 1.404-1.91 2.619Z" style="fill:none;stroke:#fff;stroke-width:.13;stroke-linecap:butt;stroke-linejoin:miter;stroke-miterlimit:4;stroke-dasharray:none;stroke-opacity:1" transform="matrix(.70577 0 0 -.70577 26.946 9.268)"/><path d="m0 0-3.615 10.684 1.01.315L.579 1.588l3.775 1.173.432-1.273z" style="fill:#fff;fill-opacity:1;fill-rule:nonzero;stroke:none" transform="matrix(.70577 0 0 -.70577 37.348 13.255)"/><path d="m0 0-3.615 10.684 1.01.315L.579 1.588l3.775 1.173.432-1.273z" style="fill:none;stroke:#fff;stroke-width:.13;stroke-linecap:butt;stroke-linejoin:miter;stroke-miterlimit:4;stroke-dasharray:none;stroke-opacity:1" transform="matrix(.70577 0 0 -.70577 37.348 13.255)"/><path d="m0 0 1.073.044.101-6.966c.01-.819.128-1.495.348-2.027.327-.806.866-1.194 1.612-1.165.897.038 1.501.504 1.811 1.401.167.487.244 1.139.232 1.951l-.1 6.965L6.15.246l.093-6.327c.018-1.387-.095-2.459-.342-3.216-.456-1.378-1.344-2.095-2.662-2.148-1.317-.052-2.223.593-2.714 1.935-.27.736-.414 1.797-.434 3.182Z" style="fill:#fff;fill-opacity:1;fill-rule:nonzero;stroke:none" transform="matrix(.70577 0 0 -.70577 46.251 3.828)"/><path d="m0 0 1.073.044.101-6.966c.01-.819.128-1.495.348-2.027.327-.806.866-1.194 1.612-1.165.897.038 1.501.504 1.811 1.401.167.487.244 1.139.232 1.951l-.1 6.965L6.15.246l.093-6.327c.018-1.387-.095-2.459-.342-3.216-.456-1.378-1.344-2.095-2.662-2.148-1.317-.052-2.223.593-2.714 1.935-.27.736-.414 1.797-.434 3.182Z" style="fill:none;stroke:#fff;stroke-width:.13;stroke-linecap:butt;stroke-linejoin:miter;stroke-miterlimit:4;stroke-dasharray:none;stroke-opacity:1" transform="matrix(.70577 0 0 -.70577 46.251 3.828)"/><path d="m0 0 3.03 10.898 1.207-.308L5.594.788l2.454 8.829.972-.248L5.989-1.529l-1.145.291-1.415 9.809L.976-.25Z" style="fill:#fff;fill-opacity:1;fill-rule:nonzero;stroke:none" transform="matrix(.70577 0 0 -.70577 54.16 11.798)"/><path d="m0 0 3.03 10.898 1.207-.308L5.594.788l2.454 8.829.972-.248L5.989-1.529l-1.145.291-1.415 9.809L.976-.25Z" style="fill:none;stroke:#fff;stroke-width:.13;stroke-linecap:butt;stroke-linejoin:miter;stroke-miterlimit:4;stroke-dasharray:none;stroke-opacity:1" transform="matrix(.70577 0 0 -.70577 54.16 11.798)"/><path d="m0 0 4.562 10.378.98-.411L.982-.411Z" style="fill:#fff;fill-opacity:1;fill-rule:nonzero;stroke:none" transform="matrix(.70577 0 0 -.70577 61.931 13.743)"/><path d="m0 0 4.562 10.378.98-.411L.982-.411Z" style="fill:none;stroke:#fff;stroke-width:.13;stroke-linecap:butt;stroke-linejoin:miter;stroke-miterlimit:4;stroke-dasharray:none;stroke-opacity:1" transform="matrix(.70577 0 0 -.70577 61.931 13.743)"/><path d="m0 0 .972-.633-3.509-9.255 7.22 6.834.985-.644-8.683-7.891-.931.609z" style="fill:#fff;fill-opacity:1;fill-rule:nonzero;stroke:none" transform="matrix(.70577 0 0 -.70577 69.846 8.6)"/><path d="m0 0 .972-.633-3.509-9.255 7.22 6.834.985-.644-8.683-7.891-.931.609z" style="fill:none;stroke:#fff;stroke-width:.13;stroke-linecap:butt;stroke-linejoin:miter;stroke-miterlimit:4;stroke-dasharray:none;stroke-opacity:1" transform="matrix(.70577 0 0 -.70577 69.846 8.6)"/><path d="m0 0 7.501 8.542 4.257-3.712-.919-1.047-3.488 3.04-2.277-2.594 3.224-2.81L7.43.431 4.208 3.239 1.664.345l3.546-3.09-.893-1.019Z" style="fill:#fff;fill-opacity:1;fill-rule:nonzero;stroke:none" transform="matrix(.70577 0 0 -.70577 71.441 19.29)"/><path d="m0 0 7.501 8.542 4.257-3.712-.919-1.047-3.488 3.04-2.277-2.594 3.224-2.81L7.43.431 4.208 3.239 1.664.345l3.546-3.09-.893-1.019Z" style="fill:none;stroke:#fff;stroke-width:.13;stroke-linecap:butt;stroke-linejoin:miter;stroke-miterlimit:4;stroke-dasharray:none;stroke-opacity:1" transform="matrix(.70577 0 0 -.70577 71.441 19.29)"/><path d="m0 0 3.832 3.011L5.3 1.126c.263-.339.401-.629.417-.875.014-.433-.261-.889-.83-1.367L3.435-2.338a10.17 10.17 0 0 1-.673-.596 2.022 2.022 0 0 1-.248-.3l.79-1.016.201.159c-.017.189.095.422.341.695.141.162.382.381.716.656l1.176.969c.507.422.83.784.968 1.087.139.302.186.629.142.98a2.606 2.606 0 0 1 1.315.01c.458.116.956.384 1.489.805 1.027.806 1.509 1.646 1.443 2.521-.037.458-.237.92-.599 1.386L8.295 7.85-.645.829Zm7.898 6.205 1.573-2.024c.221-.283.336-.557.345-.823.015-.498-.297-.997-.933-1.497-.592-.464-1.089-.673-1.492-.626-.403.047-.756.266-1.057.654L4.843 3.806Z" style="fill:#fff;fill-opacity:1;fill-rule:nonzero;stroke:none" transform="matrix(.70577 0 0 -.70577 77.464 25.008)"/><path d="m0 0 3.832 3.011L5.3 1.126c.263-.339.401-.629.417-.875.014-.433-.261-.889-.83-1.367L3.435-2.338a10.17 10.17 0 0 1-.673-.596 2.022 2.022 0 0 1-.248-.3l.79-1.016.201.159c-.017.189.095.422.341.695.141.162.382.381.716.656l1.176.969c.507.422.83.784.968 1.087.139.302.186.629.142.98a2.606 2.606 0 0 1 1.315.01c.458.116.956.384 1.489.805 1.027.806 1.509 1.646 1.443 2.521-.037.458-.237.92-.599 1.386L8.295 7.85-.645.829Zm7.898 6.205 1.573-2.024c.221-.283.336-.557.345-.823.015-.498-.297-.997-.933-1.497-.592-.464-1.089-.673-1.492-.626-.403.047-.756.266-1.057.654L4.843 3.806Z" style="fill:none;stroke:#fff;stroke-width:.13;stroke-linecap:butt;stroke-linejoin:miter;stroke-miterlimit:4;stroke-dasharray:none;stroke-opacity:1" transform="matrix(.70577 0 0 -.70577 77.464 25.008)"/><path d="m0 0 .415-.896c-.57-.299-.998-.62-1.284-.957-.533-.643-.616-1.361-.246-2.161.166-.358.39-.649.674-.872.552-.431 1.199-.469 1.942-.115.558.266.901.577 1.027.93.12.354.147.83.08 1.431l-.127 1.104c-.084.72-.061 1.27.065 1.646.221.651.758 1.18 1.608 1.586.92.441 1.776.582 2.571.426.792-.156 1.372-.634 1.742-1.438a2.835 2.835 0 0 0 .092-2.253c-.28-.764-.989-1.418-2.128-1.96l-.414.896c.527.31.9.613 1.122.909.399.546.438 1.169.117 1.864-.26.564-.618.884-1.076.966-.459.083-.915.014-1.372-.203-.5-.239-.801-.558-.901-.956-.061-.259-.049-.776.032-1.547l.13-1.144c.061-.551.016-1.023-.139-1.413-.273-.677-.864-1.232-1.776-1.666C1.02-6.365.078-6.47-.673-6.136a3.202 3.202 0 0 0-1.644 1.629c-.404.878-.395 1.718.024 2.523C-1.873-1.178-1.11-.517 0 0" style="fill:#fff;fill-opacity:1;fill-rule:nonzero;stroke:none" transform="matrix(.70577 0 0 -.70577 83.552 28.982)"/><path d="m0 0 .415-.896c-.57-.299-.998-.62-1.284-.957-.533-.643-.616-1.361-.246-2.161.166-.358.39-.649.674-.872.552-.431 1.199-.469 1.942-.115.558.266.901.577 1.027.93.12.354.147.83.08 1.431l-.127 1.104c-.084.72-.061 1.27.065 1.646.221.651.758 1.18 1.608 1.586.92.441 1.776.582 2.571.426.792-.156 1.372-.634 1.742-1.438a2.835 2.835 0 0 0 .092-2.253c-.28-.764-.989-1.418-2.128-1.96l-.414.896c.527.31.9.613 1.122.909.399.546.438 1.169.117 1.864-.26.564-.618.884-1.076.966-.459.083-.915.014-1.372-.203-.5-.239-.801-.558-.901-.956-.061-.259-.049-.776.032-1.547l.13-1.144c.061-.551.016-1.023-.139-1.413-.273-.677-.864-1.232-1.776-1.666C1.02-6.365.078-6.47-.673-6.136a3.202 3.202 0 0 0-1.644 1.629c-.404.878-.395 1.718.024 2.523C-1.873-1.178-1.11-.517 0 0Z" style="fill:none;stroke:#fff;stroke-width:.13;stroke-linecap:butt;stroke-linejoin:miter;stroke-miterlimit:4;stroke-dasharray:none;stroke-opacity:1" transform="matrix(.70577 0 0 -.70577 83.552 28.982)"/><path d="m0 0 10.712 3.689.328-1.012L.328-1.011Z" style="fill:#fff;fill-opacity:1;fill-rule:nonzero;stroke:none" transform="matrix(.70577 0 0 -.70577 84.23 37.581)"/><path d="m0 0 10.712 3.689.328-1.012L.328-1.011Z" style="fill:none;stroke:#fff;stroke-width:.13;stroke-linecap:butt;stroke-linejoin:miter;stroke-miterlimit:4;stroke-dasharray:none;stroke-opacity:1" transform="matrix(.70577 0 0 -.70577 84.23 37.581)"/><path d="m0 0 1.063-6.231-1.322-.256-.442 2.588-9.78-1.888-.179 1.055 9.779 1.889-.442 2.588z" style="fill:#fff;fill-opacity:1;fill-rule:nonzero;stroke:none" transform="matrix(.70577 0 0 -.70577 92.996 39.295)"/><path d="m0 0 1.063-6.231-1.322-.256-.442 2.588-9.78-1.888-.179 1.055 9.779 1.889-.442 2.588z" style="fill:none;stroke:#fff;stroke-width:.13;stroke-linecap:butt;stroke-linejoin:miter;stroke-miterlimit:4;stroke-dasharray:none;stroke-opacity:1" transform="matrix(.70577 0 0 -.70577 92.996 39.295)"/><path d="m0 0 6.627 3.328.039-1.234-5.34-2.547 5.475-1.942.038-1.24L.032-1.059-4.5-1.311l-.032 1.059Z" style="fill:#fff;fill-opacity:1;fill-rule:nonzero;stroke:none" transform="matrix(.70577 0 0 -.70577 89.526 48.078)"/><path d="m0 0 6.627 3.328.039-1.234-5.34-2.547 5.475-1.942.038-1.24L.032-1.059-4.5-1.311l-.032 1.059Z" style="fill:none;stroke:#fff;stroke-width:.13;stroke-linecap:butt;stroke-linejoin:miter;stroke-miterlimit:4;stroke-dasharray:none;stroke-opacity:1" transform="matrix(.70577 0 0 -.70577 89.526 48.078)"/><path d="M0 0a1.529 1.529 0 1 1 0 3.057A1.529 1.529 0 0 1 0 0" style="fill:#fff;fill-opacity:1;fill-rule:nonzero;stroke:none" transform="matrix(.70577 0 0 -.70577 9.455 63.329)"/><path d="M0 0a1.529 1.529 0 1 1 0 3.057A1.529 1.529 0 0 1 0 0Z" style="fill:none;stroke:#fff;stroke-width:1.3;stroke-linecap:butt;stroke-linejoin:miter;stroke-miterlimit:4;stroke-dasharray:none;stroke-opacity:1" transform="matrix(.70577 0 0 -.70577 9.455 63.329)"/><path d="M0 0a1.529 1.529 0 1 1 0 3.058A1.529 1.529 0 0 1 0 0" style="fill:#fff;fill-opacity:1;fill-rule:nonzero;stroke:none" transform="matrix(.70577 0 0 -.70577 87.922 63.036)"/><path d="M0 0a1.529 1.529 0 1 1 0 3.058A1.529 1.529 0 0 1 0 0Z" style="fill:none;stroke:#fff;stroke-width:1.3;stroke-linecap:butt;stroke-linejoin:miter;stroke-miterlimit:4;stroke-dasharray:none;stroke-opacity:1" transform="matrix(.70577 0 0 -.70577 87.922 63.036)"/><path d="M0 0s-.353-1.155-1.142-1.772c-.789-.618-2.546-1.855-2.939-2.613-.391-.759-1.749-2.533 1.003-4.499 1.448-1.033 4.931.501 5.076.573C2.142-8.238.056-3.242.288.111.331.722 0 0 0 0" style="fill:#fff;fill-opacity:1;fill-rule:nonzero;stroke:none" transform="matrix(.70577 0 0 -.70577 26.873 54.341)"/><path d="M0 0s-.353-1.155-1.142-1.772c-.789-.618-2.546-1.855-2.939-2.613-.391-.759-1.749-2.533 1.003-4.499 1.448-1.033 4.931.501 5.076.573C2.142-8.238.056-3.242.288.111.331.722 0 0 0 0Z" style="fill:none;stroke:#000;stroke-width:.325;stroke-linecap:butt;stroke-linejoin:miter;stroke-miterlimit:4;stroke-dasharray:none;stroke-opacity:1" transform="matrix(.70577 0 0 -.70577 26.873 54.341)"/><path d="m0 0 2.027-7.195" style="fill:#fff;fill-opacity:1;fill-rule:nonzero;stroke:#000;stroke-width:.325;stroke-linecap:butt;stroke-linejoin:miter;stroke-miterlimit:4;stroke-dasharray:none;stroke-opacity:1" transform="matrix(.70577 0 0 -.70577 26.37 55.284)"/><path d="m0 0 2.023-6.671" style="fill:#fff;fill-opacity:1;fill-rule:nonzero;stroke:#000;stroke-width:.325;stroke-linecap:butt;stroke-linejoin:miter;stroke-miterlimit:4;stroke-dasharray:none;stroke-opacity:1" transform="matrix(.70577 0 0 -.70577 25.555 55.95)"/><path d="m0 0 1.768-6.15" style="fill:#fff;fill-opacity:1;fill-rule:nonzero;stroke:#000;stroke-width:.325;stroke-linecap:butt;stroke-linejoin:miter;stroke-miterlimit:4;stroke-dasharray:none;stroke-opacity:1" transform="matrix(.70577 0 0 -.70577 24.827 56.566)"/><path d="m0 0 1.474-5.324" style="fill:#fff;fill-opacity:1;fill-rule:nonzero;stroke:#000;stroke-width:.325;stroke-linecap:butt;stroke-linejoin:miter;stroke-miterlimit:4;stroke-dasharray:none;stroke-opacity:1" transform="matrix(.70577 0 0 -.70577 24.296 57.078)"/><path d="m0 0 1.139-3.776" style="fill:#fff;fill-opacity:1;fill-rule:nonzero;stroke:#000;stroke-width:.325;stroke-linecap:butt;stroke-linejoin:miter;stroke-miterlimit:4;stroke-dasharray:none;stroke-opacity:1" transform="matrix(.70577 0 0 -.70577 23.768 57.844)"/><path d="M0 0s.369-1.151 1.166-1.759c.796-.607 2.569-1.822 2.969-2.577.401-.753 1.782-2.51-.945-4.509-1.437-1.052-4.939.438-5.083.51-.145.071 1.878 5.092 1.605 8.441C-.339.716 0 0 0 0" style="fill:#fff;fill-opacity:1;fill-rule:nonzero;stroke:none" transform="matrix(.70577 0 0 -.70577 70.524 54.07)"/><path d="M0 0s.369-1.151 1.166-1.759c.796-.607 2.569-1.822 2.969-2.577.401-.753 1.782-2.51-.945-4.509-1.437-1.052-4.939.438-5.083.51-.145.071 1.878 5.092 1.605 8.441C-.339.716 0 0 0 0Z" style="fill:none;stroke:#000;stroke-width:.325;stroke-linecap:butt;stroke-linejoin:miter;stroke-miterlimit:4;stroke-dasharray:none;stroke-opacity:1" transform="matrix(.70577 0 0 -.70577 70.524 54.07)"/><path d="m0 0-1.936-7.219" style="fill:#fff;fill-opacity:1;fill-rule:nonzero;stroke:#000;stroke-width:.325;stroke-linecap:butt;stroke-linejoin:miter;stroke-miterlimit:4;stroke-dasharray:none;stroke-opacity:1" transform="matrix(.70577 0 0 -.70577 71.039 55.008)"/><path d="m0 0-1.942-6.697" style="fill:#fff;fill-opacity:1;fill-rule:nonzero;stroke:#000;stroke-width:.325;stroke-linecap:butt;stroke-linejoin:miter;stroke-miterlimit:4;stroke-dasharray:none;stroke-opacity:1" transform="matrix(.70577 0 0 -.70577 71.863 55.664)"/><path d="m0 0-1.692-6.172" style="fill:#fff;fill-opacity:1;fill-rule:nonzero;stroke:#000;stroke-width:.325;stroke-linecap:butt;stroke-linejoin:miter;stroke-miterlimit:4;stroke-dasharray:none;stroke-opacity:1" transform="matrix(.70577 0 0 -.70577 72.598 56.27)"/><path d="m0 0-1.409-5.343" style="fill:#fff;fill-opacity:1;fill-rule:nonzero;stroke:#000;stroke-width:.325;stroke-linecap:butt;stroke-linejoin:miter;stroke-miterlimit:4;stroke-dasharray:none;stroke-opacity:1" transform="matrix(.70577 0 0 -.70577 73.136 56.775)"/><path d="m0 0-1.094-3.79" style="fill:#fff;fill-opacity:1;fill-rule:nonzero;stroke:#000;stroke-width:.325;stroke-linecap:butt;stroke-linejoin:miter;stroke-miterlimit:4;stroke-dasharray:none;stroke-opacity:1" transform="matrix(.70577 0 0 -.70577 73.674 57.535)"/><path d="M0 0v17.775c2.432-4.362 14.718-.272 14.718-.272 8.864 2.271 15.961 8.576 15.961 8.576s6.523-5.765 15.711-8.576c0 0 12.526-4.09 14.956.272V0Z" style="fill:#d71921;fill-opacity:1;fill-rule:nonzero;stroke:none" transform="matrix(.70577 0 0 -.70577 26.99 41.21)"/><path d="M0 0v17.775c2.432-4.362 14.718-.272 14.718-.272 8.864 2.271 15.961 8.576 15.961 8.576s6.523-5.765 15.711-8.576c0 0 12.526-4.09 14.956.272V0Z" style="fill:none;stroke:#231f20;stroke-width:.325;stroke-linecap:butt;stroke-linejoin:miter;stroke-miterlimit:4;stroke-dasharray:none;stroke-opacity:1" transform="matrix(.70577 0 0 -.70577 26.99 41.21)"/><path d="M0 0v-19.592s2.765-13.792 10.839-21.593c7.998-7.73 15.031-8.01 17.916-11.253l1.924-1.728 2.091 1.693c2.251 2.123 9.964 3.837 18.322 11.332 8.361 7.496 10.254 21.549 10.254 21.549V0Z" style="fill:#005aa9;fill-opacity:1;fill-rule:nonzero;stroke:none" transform="matrix(.70577 0 0 -.70577 26.99 42.126)"/><path d="M0 0v-19.592s2.765-13.792 10.839-21.593c7.998-7.73 15.031-8.01 17.916-11.253l1.924-1.728 2.091 1.693c2.251 2.123 9.964 3.837 18.322 11.332 8.361 7.496 10.254 21.549 10.254 21.549V0Z" style="fill:none;stroke:#231f20;stroke-width:.52;stroke-linecap:butt;stroke-linejoin:miter;stroke-miterlimit:4;stroke-dasharray:none;stroke-opacity:1" transform="matrix(.70577 0 0 -.70577 26.99 42.126)"/><path d="M0 0v23.512l-1.857 1.585-1.846-1.621V-.053h-29.393v-3.405h29.393l-.067-52.668 1.875-1.888c.107.216 1.895 1.82 1.895 1.82v52.745h29.296V0Z" style="fill:#fff;fill-opacity:1;fill-rule:nonzero;stroke:none" transform="matrix(.70577 0 0 -.70577 49.98 40.085)"/><path d="M0 0v23.512l-1.857 1.585-1.846-1.621V-.053h-29.393v-3.405h29.393l-.067-52.668 1.875-1.888c.107.216 1.895 1.82 1.895 1.82v52.745h29.296V0Z" style="fill:none;stroke:#000;stroke-width:.325;stroke-linecap:butt;stroke-linejoin:miter;stroke-miterlimit:4;stroke-dasharray:none;stroke-opacity:1" transform="matrix(.70577 0 0 -.70577 49.98 40.085)"/><path d="M0 0s-1.166 2.011 2.709 4.628c3.877 2.62 1.121 5.486-.187 6.918-1.304 1.433-7.218 2.118-7.839 9.321 0 0-3.433-4.345.785-10.662 0 0-3.177 1.133-4.065 4.876 0 0-2.266-5.704 1.704-9.848.362-.378.54-.454 1.01-.801 0 0 1.1-.479 1.896-.69C-2.59 3.37-.82 2.621-.148.431Z" style="fill:#fd0;fill-opacity:1;fill-rule:nonzero;stroke:none" transform="matrix(.70577 0 0 -.70577 23.623 59.295)"/><path d="M0 0s-1.166 2.011 2.709 4.628c3.877 2.62 1.121 5.486-.187 6.918-1.304 1.433-7.218 2.118-7.839 9.321 0 0-3.433-4.345.785-10.662 0 0-3.177 1.133-4.065 4.876 0 0-2.266-5.704 1.704-9.848.362-.378.54-.454 1.01-.801 0 0 1.1-.479 1.896-.69C-2.59 3.37-.82 2.621-.148.431Z" style="fill:none;stroke:#231f20;stroke-width:.325;stroke-linecap:butt;stroke-linejoin:miter;stroke-miterlimit:4;stroke-dasharray:none;stroke-opacity:1" transform="matrix(.70577 0 0 -.70577 23.623 59.295)"/><path d="M0 0s-3.595-1.319 2.782-6.757c0 0 1.884-1.718 2.04-3.735.156-2.017 1.597-1.854 2.747-1.559 1.152.295 14.529 4.838 18.131 4.86 0 0 1.299-.28 1.001 1.158l-1.788 9.646S12.103.652 7.071-1.108c0 0-5.748-3.064-7.071 1.108" style="fill:#fd0;fill-opacity:1;fill-rule:nonzero;stroke:none" transform="matrix(.70577 0 0 -.70577 23.623 59.295)"/><path d="M0 0s-3.595-1.319 2.782-6.757c0 0 1.884-1.718 2.04-3.735.156-2.017 1.597-1.854 2.747-1.559 1.152.295 14.529 4.838 18.131 4.86 0 0 1.299-.28 1.001 1.158l-1.788 9.646S12.103.652 7.071-1.108c0 0-5.748-3.064-7.071 1.108z" style="fill:none;stroke:#231f20;stroke-width:.325;stroke-linecap:butt;stroke-linejoin:miter;stroke-miterlimit:4;stroke-dasharray:none;stroke-opacity:1" transform="matrix(.70577 0 0 -.70577 23.623 59.295)"/><path d="M0 0s1.139 2.026-2.767 4.595c-3.908 2.57-1.188 5.471.102 6.919 1.288 1.451 7.193 2.206 7.725 9.417 0 0 3.483-4.302-.656-10.67 0 0 3.164 1.173 4.006 4.926 0 0 2.335-5.675-1.583-9.87-.356-.382-.534-.46-1-.813 0 0-1.095-.494-1.888-.714C2.548 3.402.786 2.631.141.434Z" style="fill:#fd0;fill-opacity:1;fill-rule:nonzero;stroke:none" transform="matrix(.70577 0 0 -.70577 73.836 58.984)"/><path d="M0 0s1.139 2.026-2.767 4.595c-3.908 2.57-1.188 5.471.102 6.919 1.288 1.451 7.193 2.206 7.725 9.417 0 0 3.483-4.302-.656-10.67 0 0 3.164 1.173 4.006 4.926 0 0 2.335-5.675-1.583-9.87-.356-.382-.534-.46-1-.813 0 0-1.095-.494-1.888-.714C2.548 3.402.786 2.631.141.434Z" style="fill:none;stroke:#231f20;stroke-width:.325;stroke-linecap:butt;stroke-linejoin:miter;stroke-miterlimit:4;stroke-dasharray:none;stroke-opacity:1" transform="matrix(.70577 0 0 -.70577 73.836 58.984)"/><path d="M0 0s3.611-1.274-2.697-6.791c0 0-1.863-1.742-1.994-3.761-.132-2.017-1.573-1.872-2.729-1.591-1.154.28-14.588 4.656-18.19 4.633 0 0-1.294-.295-1.016 1.147l1.669 9.668S-12.11.502-7.056-1.196c0 0 5.785-2.992 7.056 1.196" style="fill:#fd0;fill-opacity:1;fill-rule:nonzero;stroke:none" transform="matrix(.70577 0 0 -.70577 73.836 58.984)"/><path d="M0 0s3.611-1.274-2.697-6.791c0 0-1.863-1.742-1.994-3.761-.132-2.017-1.573-1.872-2.729-1.591-1.154.28-14.588 4.656-18.19 4.633 0 0-1.294-.295-1.016 1.147l1.669 9.668S-12.11.502-7.056-1.196c0 0 5.785-2.992 7.056 1.196z" style="fill:none;stroke:#231f20;stroke-width:.325;stroke-linecap:butt;stroke-linejoin:miter;stroke-miterlimit:4;stroke-dasharray:none;stroke-opacity:1" transform="matrix(.70577 0 0 -.70577 73.836 58.984)"/><path d="M0 0s1.195-.884 2.448.304l1.927-8.491s2.224-1.419-.275-2.166c-1.082-.322-2.325-.67-2.658.147-.219.538.075.864.044 1.594C1.428-7.26 0 0 0 0" style="fill:#fd0;fill-opacity:1;fill-rule:nonzero;stroke:none" transform="matrix(.70577 0 0 -.70577 41.416 57.862)"/><path d="M0 0s1.195-.884 2.448.304l1.927-8.491s2.224-1.419-.275-2.166c-1.082-.322-2.325-.67-2.658.147-.219.538.075.864.044 1.594C1.428-7.26 0 0 0 0Z" style="fill:none;stroke:#231f20;stroke-width:.325;stroke-linecap:butt;stroke-linejoin:miter;stroke-miterlimit:4;stroke-dasharray:none;stroke-opacity:1" transform="matrix(.70577 0 0 -.70577 41.416 57.862)"/><path d="M0 0s-1.346-.832-2.615.342l-1.539-8.568s-2.326-1.462.183-2.175c1.087-.31 2.334-.643 2.656.178.213.542-.086.864-.063 1.593C-1.337-7.278 0 0 0 0" style="fill:#fd0;fill-opacity:1;fill-rule:nonzero;stroke:none" transform="matrix(.70577 0 0 -.70577 56.026 57.772)"/><path d="M0 0s-1.346-.832-2.615.342l-1.539-8.568s-2.326-1.462.183-2.175c1.087-.31 2.334-.643 2.656.178.213.542-.086.864-.063 1.593C-1.337-7.278 0 0 0 0Z" style="fill:none;stroke:#231f20;stroke-width:.325;stroke-linecap:butt;stroke-linejoin:miter;stroke-miterlimit:4;stroke-dasharray:none;stroke-opacity:1" transform="matrix(.70577 0 0 -.70577 56.026 57.772)"/><path d="M0 0s7.698 2.138 16.501.462L14.55-10.145s-7.887.402-12.18-.217z" style="fill:#fd0;fill-opacity:1;fill-rule:nonzero;stroke:none" transform="matrix(.70577 0 0 -.70577 42.831 56.327)"/><path d="M0 0s7.698 2.138 16.501.462L14.55-10.145s-7.887.402-12.18-.217z" style="fill:none;stroke:#231f20;stroke-width:.325;stroke-linecap:butt;stroke-linejoin:miter;stroke-miterlimit:4;stroke-dasharray:none;stroke-opacity:1" transform="matrix(.70577 0 0 -.70577 42.831 56.327)"/><path d="M0 0c-.343.581-.783 1.513-.486 2.352.298.837.973.431.757-.272-.216-.702.183-3.144 1.675-3.188 1.812-.055.974.539.974.539-.675.163-.379 1-.514 2.974C2.27 4.377.676 4.512.135 4.54c-.541.026-.877.581-1.134 1.35-.622 1.866-3.055 1.243-3.055 1.243s.839-.378.865-1.188c.028-.811-1.053-1.379-1.594-1.405-.541-.028-2.135-.163-2.27-2.135-.135-1.974.163-2.811-.513-2.974 0 0-1.003-.539.972-.539 1.162 0 1.919 2.27 1.676 3.188-.188.71.459 1.109.757.272.298-.839-.028-1.704-.434-2.245 0 0-.782-.676-.08-.729.704-.055 2-.027 2-.027s.486 0 .054.649c-.431.648-.594 1.648-.27 2.162.325.513 1.108.107 1.162-.028.053-.135.459-1.243.028-2.054 0 0-.569-.621-.19-.702.378-.08 1.621-.027 1.621-.027S.433-.73 0 0" style="fill:#fff;fill-opacity:1;fill-rule:nonzero;stroke:none" transform="matrix(.70577 0 0 -.70577 50.28 61.943)"/><path d="M0 0c-.343.581-.783 1.513-.486 2.352.298.837.973.431.757-.272-.216-.702.183-3.144 1.675-3.188 1.812-.055.974.539.974.539-.675.163-.379 1-.514 2.974C2.27 4.377.676 4.512.135 4.54c-.541.026-.877.581-1.134 1.35-.622 1.866-3.055 1.243-3.055 1.243s.839-.378.865-1.188c.028-.811-1.053-1.379-1.594-1.405-.541-.028-2.135-.163-2.27-2.135-.135-1.974.163-2.811-.513-2.974 0 0-1.003-.539.972-.539 1.162 0 1.919 2.27 1.676 3.188-.188.71.459 1.109.757.272.298-.839-.028-1.704-.434-2.245 0 0-.782-.676-.08-.729.704-.055 2-.027 2-.027s.486 0 .054.649c-.431.648-.594 1.648-.27 2.162.325.513 1.108.107 1.162-.028.053-.135.459-1.243.028-2.054 0 0-.569-.621-.19-.702.378-.08 1.621-.027 1.621-.027S.433-.73 0 0z" style="fill:none;stroke:#000;stroke-width:.325;stroke-linecap:butt;stroke-linejoin:miter;stroke-miterlimit:4;stroke-dasharray:none;stroke-opacity:1" transform="matrix(.70577 0 0 -.70577 50.28 61.943)"/><path d="M0 0c-4.722-.379-5.069 2.229-5.069 2.229 0 1.286 1.907 2.327 4.257 2.327 2.352 0 3.82-.892 3.82-2.178 0 0-.377-1.945-3.296-1.567-2.476.32-2.865 1.026-2.919 1.675 0 0 .649.919 1.243.919" style="fill:#fff;fill-opacity:1;fill-rule:nonzero;stroke:#000;stroke-width:.325;stroke-linecap:butt;stroke-linejoin:miter;stroke-miterlimit:4;stroke-dasharray:none;stroke-opacity:1" transform="matrix(.70577 0 0 -.70577 30.486 29.887)"/><path d="M0 0c-.948 0-1.716.308-1.716.689h-.037V-3.23s1.888-1.568 3.418-.053V.526C1.482.226.809 0 0 0" style="fill:#fff;fill-opacity:1;fill-rule:nonzero;stroke:none" transform="matrix(.70577 0 0 -.70577 30.01 25.834)"/><path d="M0 0c-.948 0-1.716.308-1.716.689h-.037V-3.23s1.888-1.568 3.418-.053V.526C1.482.226.809 0 0 0Z" style="fill:none;stroke:#000;stroke-width:.325;stroke-linecap:butt;stroke-linejoin:round;stroke-miterlimit:4;stroke-dasharray:none;stroke-opacity:1" transform="matrix(.70577 0 0 -.70577 30.01 25.834)"/><path d="M0 0v.001c0 .38-.769.687-1.719.687-.948 0-1.715-.307-1.715-.687 0-.38.767-.689 1.715-.689.81 0 1.483.226 1.666.526A.312.312 0 0 1 0 .001Z" style="fill:#fff;fill-opacity:1;fill-rule:nonzero;stroke:none" transform="matrix(.70577 0 0 -.70577 31.223 25.348)"/><path d="M0 0v.001c0 .38-.769.687-1.719.687-.948 0-1.715-.307-1.715-.687 0-.38.767-.689 1.715-.689.81 0 1.483.226 1.666.526A.312.312 0 0 1 0 .001Z" style="fill:none;stroke:#000;stroke-width:.325;stroke-linecap:butt;stroke-linejoin:round;stroke-miterlimit:4;stroke-dasharray:none;stroke-opacity:1" transform="matrix(.70577 0 0 -.70577 31.223 25.348)"/><path d="M0 0c4.722-.379 5.069 2.229 5.069 2.229 0 1.286-1.906 2.327-4.256 2.327-2.353 0-3.82-.892-3.82-2.178 0 0 .378-1.945 3.297-1.567 2.475.32 2.864 1.026 2.919 1.675 0 0-.649.919-1.243.919" style="fill:#fff;fill-opacity:1;fill-rule:nonzero;stroke:#000;stroke-width:.325;stroke-linecap:butt;stroke-linejoin:miter;stroke-miterlimit:4;stroke-dasharray:none;stroke-opacity:1" transform="matrix(.70577 0 0 -.70577 66.775 29.887)"/><path d="M0 0c.948 0 1.719.308 1.719.689h.036V-3.23s-1.888-1.568-3.419-.053V.526C-1.479.226-.808 0 0 0" style="fill:#fff;fill-opacity:1;fill-rule:nonzero;stroke:none" transform="matrix(.70577 0 0 -.70577 67.251 25.834)"/><path d="M0 0c.948 0 1.719.308 1.719.689h.036V-3.23s-1.888-1.568-3.419-.053V.526C-1.479.226-.808 0 0 0Z" style="fill:none;stroke:#000;stroke-width:.325;stroke-linecap:butt;stroke-linejoin:round;stroke-miterlimit:4;stroke-dasharray:none;stroke-opacity:1" transform="matrix(.70577 0 0 -.70577 67.251 25.834)"/><path d="m0 0-.001.001c0 .38.768.687 1.717.687.948 0 1.719-.307 1.719-.687 0-.38-.771-.689-1.719-.689-.808 0-1.48.226-1.664.526a.312.312 0 0 0-.053.163z" style="fill:#fff;fill-opacity:1;fill-rule:nonzero;stroke:none" transform="matrix(.70577 0 0 -.70577 66.04 25.348)"/><path d="m0 0-.001.001c0 .38.768.687 1.717.687.948 0 1.719-.307 1.719-.687 0-.38-.771-.689-1.719-.689-.808 0-1.48.226-1.664.526a.312.312 0 0 0-.053.163z" style="fill:none;stroke:#000;stroke-width:.325;stroke-linecap:butt;stroke-linejoin:round;stroke-miterlimit:4;stroke-dasharray:none;stroke-opacity:1" transform="matrix(.70577 0 0 -.70577 66.04 25.348)"/><path d="M0 0v-.493h-4.686V0c.139.009.357.028.651.059.293.031.498.061.609.093a.636.636 0 0 1 .329.226c.076.106.115.262.115.47v4.879h-1.732v.585h.384c.499 0 .948.092 1.345.278.396.185.679.384.851.599h.576a77.41 77.41 0 0 1-.04-1.059 29.28 29.28 0 0 1-.022-1.082V.924c0-.161.036-.306.108-.435a.657.657 0 0 1 .31-.281c.12-.05.317-.096.59-.139C-.338.028-.135.005 0 0" style="fill:#fff;fill-opacity:1;fill-rule:nonzero;stroke:none" transform="matrix(.70577 0 0 -.70577 40.084 50.346)"/><path d="M0 0c-.614.738-1.438 1.106-2.472 1.106-.95 0-1.749-.329-2.395-.987-.646-.659-.97-1.466-.97-2.425 0-.896.281-1.637.839-2.226.557-.589 1.215-.883 1.97-.883.472 0 .898.075 1.276.226.377.149.756.387 1.136.713-.162-1.006-.524-1.836-1.084-2.49-.561-.652-1.34-1.137-2.337-1.453l-.625-.111.125-.624c.834.11 1.589.341 2.264.691.675.35 1.245.789 1.712 1.318.478.537.844 1.16 1.099 1.872.255.711.383 1.471.383 2.277C.921-1.735.613-.737 0 0m-.561-3.19a5.693 5.693 0 0 1-.006-.238 2.616 2.616 0 0 0-.022-.347 2.463 2.463 0 0 0-.841-.636 2.447 2.447 0 0 0-.994-.197c-.578 0-1.041.227-1.387.681-.345.454-.518 1.056-.518 1.808 0 .834.169 1.489.509 1.963.337.475.784.713 1.334.713.579 0 1.047-.307 1.4-.922.356-.614.533-1.463.533-2.547a5.1 5.1 0 0 0-.008-.278" style="fill:#fff;fill-opacity:1;fill-rule:nonzero;stroke:none" transform="matrix(.70577 0 0 -.70577 44.964 46.049)"/><path d="M0 0c-.55.593-1.211.891-1.984.891-.432 0-.842-.072-1.233-.217-.387-.143-.781-.388-1.18-.735.161.977.518 1.809 1.067 2.494.549.686 1.327 1.192 2.333 1.517l.625.111-.126.625c-1.653-.227-2.974-.91-3.958-2.045-.985-1.135-1.478-2.529-1.478-4.183a5.6 5.6 0 0 1 .244-1.716c.162-.512.39-.943.688-1.295a3 3 0 0 1 1.063-.806 3.325 3.325 0 0 1 1.398-.286c.446 0 .872.082 1.283.244A3.28 3.28 0 0 1 .563-3.573c.174.422.261.874.261 1.356C.824-1.331.55-.593 0 0m-1.192-4.376c-.338-.479-.784-.72-1.336-.72-.579 0-1.045.307-1.4.922-.354.614-.533 1.463-.533 2.548 0 .116.005.275.014.475.01.203.018.33.022.387.277.306.567.524.866.653.299.13.623.195.97.195.578 0 1.041-.228 1.386-.682.346-.453.518-1.057.518-1.807 0-.833-.171-1.491-.507-1.971" style="fill:#fff;fill-opacity:1;fill-rule:nonzero;stroke:none" transform="matrix(.70577 0 0 -.70577 55.75 47.143)"/><path d="M0 0v-1.23h-6.515v.946c.124.142.298.304.521.483.223.178.487.373.792.581.185.123.408.26.669.409.257.148.552.309.882.487.365.195.648.366.843.514.198.148.378.333.541.55.107.143.192.322.256.54.064.212.099.52.099.92 0 .579-.158 1.004-.466 1.276-.311.27-.709.406-1.197.406-.301 0-.586-.059-.856-.177a1.327 1.327 0 0 1-.603-.492 34.1 34.1 0 0 1 .121-.527c.048-.205.073-.402.073-.599a.627.627 0 0 0-.219-.468c-.146-.136-.364-.205-.651-.205-.231 0-.408.078-.535.239-.126.161-.186.374-.186.643 0 .251.07.502.207.754.14.253.339.486.6.699.252.209.569.379.944.508.375.13.781.194 1.216.194.95 0 1.704-.211 2.264-.636.558-.424.837-.989.837-1.699a2.7 2.7 0 0 0-.15-.923 1.88 1.88 0 0 0-.482-.739 3.674 3.674 0 0 0-.862-.608 32.58 32.58 0 0 0-1.508-.706C-3.77.959-4.145.771-4.493.573A5.656 5.656 0 0 1-5.346 0Z" style="fill:#fff;fill-opacity:1;fill-rule:nonzero;stroke:none" transform="matrix(.70577 0 0 -.70577 61.882 50.101)"/><g style="fill:#f9f9f9"><path d="M0 0c.041-1.135.433-2.075 1.168-2.813.76-.764 1.715-1.145 2.862-1.145 1.254 0 2.267.403 3.047 1.206.78.781 1.169 1.784 1.169 3 0 1.298-.379 2.28-1.135 2.939-.573.493-1.597.958-3.073 1.391-.96.289-1.792.618-2.486.989-.84.474-1.536 1.031-2.09 1.672a4.333 4.333 0 0 0-.86 1.575 6.028 6.028 0 0 0-.275 1.855c0 1.981.556 3.555 1.664 4.734 1.109 1.152 2.596 1.731 4.465 1.731 1.701 0 3.063-.508 4.091-1.52 1.006-.991 1.559-2.393 1.66-4.208H7.808c-.06.867-.41 1.608-1.047 2.228-.656.596-1.442.896-2.368.896-1.065 0-1.917-.352-2.554-1.053-.636-.679-.952-1.557-.952-2.627 0-.393.04-.743.12-1.054.104-.37.288-.692.554-.959.367-.35.863-.659 1.476-.928.367-.144.981-.34 1.842-.587l1.441-.464c1.456-.557 2.561-1.351 3.317-2.383.757-1.05 1.137-2.349 1.137-3.896 0-2.185-.607-3.928-1.818-5.226-1.212-1.318-2.833-1.98-4.865-1.98-1.926 0-3.487.61-4.674 1.831C-1.775-3.58-2.37-1.979-2.37 0Z" style="fill:#f9f9f9;fill-opacity:1;fill-rule:nonzero;stroke:none" transform="matrix(.70577 0 0 -.70577 118.426 88.834)"/></g><g style="fill:#f9f9f9"><path d="M0 0v-14.59c0-2.019.307-3.482.92-4.389.676-1.031 1.869-1.546 3.588-1.546 1.594 0 2.717.515 3.373 1.546.613.907.92 2.37.92 4.389V0h2.75v-14.53c0-1.316-.07-2.39-.214-3.214-.186-.987-.493-1.833-.921-2.534-.698-1.015-1.519-1.769-2.464-2.268-.942-.496-2.07-.743-3.382-.743-1.433 0-2.646.236-3.631.711-.982.5-1.844 1.266-2.581 2.3a6.497 6.497 0 0 0-.986 2.658c-.081.64-.125 1.67-.125 3.09V0Z" style="fill:#f9f9f9;fill-opacity:1;fill-rule:nonzero;stroke:none" transform="matrix(.70577 0 0 -.70577 133.888 77.096)"/></g><g style="fill:#f9f9f9"><path d="M0 0v22.814h2.92L14.817 4.543v18.271h2.654V0h-2.702L2.751 18.735V0Z" style="fill:#f9f9f9;fill-opacity:1;fill-rule:nonzero;stroke:none" transform="matrix(.70577 0 0 -.70577 148.603 93.193)"/></g><g style="fill:#f9f9f9"><path d="M0 0c-.142-3.51-1.302-6.348-3.474-8.515-2.153-2.147-4.874-3.221-8.155-3.221-1.68 0-3.241.33-4.678.991-1.454.661-2.756 1.628-3.906 2.907a12.168 12.168 0 0 0-2.228 3.712 12.914 12.914 0 0 0-.744 4.394c0 1.63.3 3.155.897 4.581a11.86 11.86 0 0 0 2.691 3.865c1.127 1.135 2.358 1.981 3.691 2.537 1.356.537 2.871.807 4.554.807 2.297 0 4.308-.519 6.029-1.557 1.706-1.035 2.966-2.492 3.787-4.366h-3.54a7.065 7.065 0 0 1-2.831 2.256c-1.127.516-2.368.773-3.722.773a8.495 8.495 0 0 1-3.293-.651 7.475 7.475 0 0 1-2.739-1.883 8.654 8.654 0 0 1-1.998-2.995 8.84 8.84 0 0 1-.677-3.399c0-1.217.206-2.389.615-3.522a8.874 8.874 0 0 1 1.813-2.903 9.203 9.203 0 0 1 2.926-1.976c1.107-.495 2.224-.741 3.353-.741 1.848 0 3.506.483 4.984 1.45 1.682 1.091 2.79 2.642 3.323 4.66h-8.154V0Z" style="fill:#f9f9f9;fill-opacity:1;fill-rule:nonzero;stroke:none" transform="matrix(.70577 0 0 -.70577 183.385 85.228)"/></g><g style="fill:#f9f9f9"><path d="M0 0v22.814h2.721V11.932l9.414 10.882h3.259L5.735 11.5 15.579 0h-3.41L2.721 11.066V0Z" style="fill:#f9f9f9;fill-opacity:1;fill-rule:nonzero;stroke:none" transform="matrix(.70577 0 0 -.70577 190.555 93.193)"/></g><g style="fill:#f9f9f9"><path d="M0 0h-2.748v8.379l-7.109 14.435h3.11l5.45-11.776 5.298 11.776h3.047L0 8.131Z" style="fill:#f9f9f9;fill-opacity:1;fill-rule:nonzero;stroke:none" transform="matrix(.70577 0 0 -.70577 213.167 93.193)"/></g><g style="fill:#f9f9f9"><path d="M0 0v-14.59c0-2.019.307-3.482.92-4.389.673-1.031 1.869-1.546 3.588-1.546 1.593 0 2.719.515 3.37 1.546.616.907.92 2.37.92 4.389V0h2.754v-14.53c0-1.316-.072-2.39-.215-3.214-.184-.987-.493-1.833-.921-2.534-.7-1.015-1.521-1.769-2.46-2.268-.946-.496-2.075-.743-3.384-.743-1.437 0-2.651.236-3.633.711-.983.5-1.842 1.266-2.583 2.3a6.452 6.452 0 0 0-.984 2.658c-.08.64-.124 1.67-.124 3.09V0Z" style="fill:#f9f9f9;fill-opacity:1;fill-rule:nonzero;stroke:none" transform="matrix(.70577 0 0 -.70577 226.3 77.096)"/></g><g style="fill:#f9f9f9"><path d="M0 0v22.827h2.753V2.7h7.628V0Z" style="fill:#f9f9f9;fill-opacity:1;fill-rule:nonzero;stroke:none" transform="matrix(.70577 0 0 -.70577 242.27 93.193)"/></g><g style="fill:#f9f9f9"><path d="M0 0v-14.59c0-2.019.303-3.482.92-4.389.668-1.031 1.866-1.546 3.584-1.546 1.595 0 2.719.515 3.376 1.546.611.907.92 2.37.92 4.389V0h2.751v-14.53c0-1.316-.07-2.39-.215-3.214-.186-.987-.493-1.833-.924-2.534-.696-1.015-1.517-1.769-2.463-2.268-.941-.496-2.07-.743-3.382-.743-1.437 0-2.644.236-3.628.711-.984.5-1.848 1.266-2.581 2.3a6.485 6.485 0 0 0-.988 2.658c-.085.64-.125 1.67-.125 3.09V0Z" style="fill:#f9f9f9;fill-opacity:1;fill-rule:nonzero;stroke:none" transform="matrix(.70577 0 0 -.70577 266.09 77.096)"/></g><g style="fill:#f9f9f9"><path d="M0 0v22.814h2.92L14.814 4.543v18.271h2.657V0h-2.702L2.752 18.735V0Z" style="fill:#f9f9f9;fill-opacity:1;fill-rule:nonzero;stroke:none" transform="matrix(.70577 0 0 -.70577 280.803 93.193)"/></g><path d="M183.356 204.782h1.943v16.102h-1.943z" style="fill:#f9f9f9;fill-opacity:1;fill-rule:nonzero;stroke:none;stroke-width:.705767" transform="translate(117.618 -127.69)"/><g style="fill:#f9f9f9"><path d="m0 0-8.615 22.814h2.892L.771 4.636l6.427 18.178h2.83L1.508 0Z" style="fill:#f9f9f9;fill-opacity:1;fill-rule:nonzero;stroke:none" transform="matrix(.70577 0 0 -.70577 315.265 93.193)"/></g><g style="fill:#f9f9f9"><path d="M0 0v22.829h11.583v-2.604H2.752v-7.493h8.831V10.19H2.752V2.7h8.831V0Z" style="fill:#f9f9f9;fill-opacity:1;fill-rule:nonzero;stroke:none" transform="matrix(.70577 0 0 -.70577 328.696 93.193)"/></g><g style="fill:#f9f9f9"><path d="M0 0c-.857.66-2.127.99-3.803.99h-2.94v-8.231h2.785c1.759 0 3.067.319 3.929.957.92.682 1.38 1.713 1.38 3.095C1.351-1.765.9-.702 0 0m2.719-7.339C1.655-8.7.107-9.537-1.922-9.844l6.976-9.399H1.615l-6.761 9.399h-1.597v-9.399h-2.691V3.593h5.106c1.393 0 2.4-.03 3.014-.093.901-.123 1.672-.382 2.308-.775C1.939 2.19 2.7 1.417 3.269.403c.559-1.03.832-2.156.832-3.374 0-1.733-.458-3.189-1.382-4.368" style="fill:#f9f9f9;fill-opacity:1;fill-rule:nonzero;stroke:none" transform="matrix(.70577 0 0 -.70577 350.509 79.611)"/></g><g style="fill:#f9f9f9"><path d="M0 0c.041-1.135.433-2.075 1.17-2.813.757-.764 1.714-1.145 2.86-1.145 1.254 0 2.27.403 3.047 1.206.776.781 1.168 1.784 1.168 3 0 1.298-.377 2.28-1.134 2.939-.577.493-1.599.958-3.073 1.391-.963.289-1.792.618-2.488.989C.712 6.041.012 6.598-.538 7.239a4.422 4.422 0 0 0-.859 1.575 6.12 6.12 0 0 0-.277 1.855c0 1.981.556 3.555 1.667 4.734 1.107 1.152 2.597 1.731 4.46 1.731 1.707 0 3.069-.508 4.093-1.52 1.006-.991 1.561-2.393 1.66-4.208h-2.4c-.058.867-.407 1.608-1.044 2.228-.654.596-1.447.896-2.368.896-1.068 0-1.917-.352-2.555-1.053-.635-.679-.951-1.557-.951-2.627 0-.393.039-.743.123-1.054.1-.37.28-.692.551-.959.369-.35.86-.659 1.473-.928.367-.144.984-.34 1.843-.587l1.445-.464c1.451-.557 2.554-1.351 3.314-2.383.758-1.05 1.136-2.349 1.136-3.896 0-2.185-.607-3.928-1.817-5.226-1.211-1.318-2.834-1.98-4.866-1.98-1.927 0-3.482.61-4.676 1.831C-1.773-3.58-2.368-1.979-2.368 0Z" style="fill:#f9f9f9;fill-opacity:1;fill-rule:nonzero;stroke:none" transform="matrix(.70577 0 0 -.70577 361.576 88.834)"/></g><path d="M257.478 204.782h1.944v16.102h-1.944z" style="fill:#f9f9f9;fill-opacity:1;fill-rule:nonzero;stroke:none;stroke-width:.705767" transform="translate(117.618 -127.69)"/><g style="fill:#f9f9f9"><path d="M0 0v20.215h-4.763v2.607H7.43v-2.607H2.691V0Z" style="fill:#f9f9f9;fill-opacity:1;fill-rule:nonzero;stroke:none" transform="matrix(.70577 0 0 -.70577 385.935 93.193)"/></g><g style="fill:#f9f9f9"><path d="M0 0h-2.752v8.379L-9.86 22.814h3.107l5.459-11.776 5.293 11.776h3.049L0 8.131Z" style="fill:#f9f9f9;fill-opacity:1;fill-rule:nonzero;stroke:none" transform="matrix(.70577 0 0 -.70577 403.356 93.193)"/></g></svg>